<svg width="128" height="170" viewBox="0 0 128 170" fill="none" xmlns="http://www.w3.org/2000/svg">
<path d="M160.247 28.7644C158.262 26.3828 155.778 24.4674 152.97 23.1542C150.162 21.8409 147.099 21.1621 143.999 21.1659H29.9286L29.6322 18.6895C29.0258 13.5421 26.5518 8.79606 22.6792 5.35128C18.8066 1.9065 13.8046 0.00241145 8.62157 0L7.0553 0C5.18411 0 3.38957 0.743324 2.06645 2.06645C0.743324 3.38957 0 5.18411 0 7.05529C0 8.92648 0.743324 10.721 2.06645 12.0441C3.38957 13.3673 5.18411 14.1106 7.0553 14.1106H8.62157C10.3496 14.1108 12.0175 14.7453 13.3089 15.8936C14.6003 17.0419 15.4253 18.6242 15.6275 20.3404L25.3356 102.887C26.3434 111.472 30.4681 119.388 36.9268 125.133C43.3854 130.877 51.7284 134.051 60.3722 134.051H134.051C135.922 134.051 137.716 133.307 139.039 131.984C140.363 130.661 141.106 128.866 141.106 126.995C141.106 125.124 140.363 123.33 139.039 122.006C137.716 120.683 135.922 119.94 134.051 119.94H60.3722C56.0053 119.928 51.7492 118.565 48.1872 116.039C44.6252 113.513 41.9318 109.947 40.4762 105.829H124.575C132.846 105.83 140.854 102.924 147.2 97.6201C153.547 92.316 157.827 84.9507 159.294 76.811L164.833 46.0922C165.386 43.0444 165.261 39.9123 164.469 36.9178C163.676 33.9233 162.235 31.1398 160.247 28.7644V28.7644ZM150.983 43.5876L145.438 74.3064C144.557 79.1957 141.984 83.6193 138.17 86.8027C134.356 89.9861 129.543 91.7264 124.575 91.7188H38.2326L31.5936 35.2765H143.999C145.035 35.2703 146.06 35.4925 147.001 35.9274C147.942 36.3622 148.775 36.999 149.442 37.7924C150.109 38.5859 150.593 39.5165 150.859 40.5181C151.125 41.5197 151.168 42.5677 150.983 43.5876V43.5876Z" fill="#61C67D"/>
<path d="M49.387 169.327C57.18 169.327 63.4975 163.009 63.4975 155.216C63.4975 147.423 57.18 141.106 49.387 141.106C41.5939 141.106 35.2764 147.423 35.2764 155.216C35.2764 163.009 41.5939 169.327 49.387 169.327Z" fill="#61C67D"/>
<path d="M119.94 169.327C127.733 169.327 134.051 163.009 134.051 155.216C134.051 147.423 127.733 141.106 119.94 141.106C112.147 141.106 105.829 147.423 105.829 155.216C105.829 163.009 112.147 169.327 119.94 169.327Z" fill="#61C67D"/>
</svg>
