<svg xmlns="http://www.w3.org/2000/svg" viewBox="0 0 352.49 350.59"><defs><style>.cls-1{fill:#62c67d;}.cls-2{fill:#fff;}.cls-3{fill:#fd8902;}.cls-4{fill:#fdc686;}</style></defs><g id="Layer_2" data-name="Layer 2"><g id="Layer_1-2" data-name="Layer 1"><circle class="cls-1" cx="184.45" cy="182.55" r="168.03"/><path class="cls-2" d="M239.43,199.87A27.53,27.53,0,0,1,219.7,192L205,177.28a28.18,28.18,0,0,1-7.77-22.84,36.35,36.35,0,0,1,10.69-22l47.78-47.79a10.7,10.7,0,0,1,15.13,15.13L223,147.61a15.09,15.09,0,0,0-4.52,8.92c-.14,1.36-.11,3.91,1.6,5.62l14.72,14.72c2.75,2.75,9.4,2.23,14.55-2.91l47.78-47.79a10.7,10.7,0,0,1,15.13,15.13l-47.78,47.79A35.87,35.87,0,0,1,239.43,199.87Z"/><path class="cls-2" d="M121.62,291.1a15.74,15.74,0,0,1-11.13-26.87l91.5-91.5A15.74,15.74,0,0,1,224.25,195l-91.5,91.5A15.65,15.65,0,0,1,121.62,291.1Z"/><path class="cls-2" d="M219.91,187.77a10.7,10.7,0,0,1-7.57-18.26l64.08-64.08a10.7,10.7,0,0,1,15.13,15.13l-64.08,64.08A10.66,10.66,0,0,1,219.91,187.77Z"/><path class="cls-2" d="M247.86,194.05A16.76,16.76,0,0,1,236,189.14L207.85,161a16.79,16.79,0,0,1,23.74-23.74l28.14,28.14a16.79,16.79,0,0,1-11.87,28.66Z"/><path class="cls-2" d="M245.71,289.06a15.7,15.7,0,0,1-11.13-4.61l-91.5-91.51a15.74,15.74,0,0,1,22.26-22.26l91.5,91.51a15.74,15.74,0,0,1-11.13,26.87Z"/><ellipse class="cls-2" cx="119.12" cy="146.72" rx="40.67" ry="64.22" transform="translate(-68.86 127.2) rotate(-45)"/><path class="cls-3" d="M35.73,244.07l8.13-14.88a3.13,3.13,0,0,1,5.49,0l8.14,14.88a48.42,48.42,0,0,0,19.22,19.22l14.88,8.14a3.13,3.13,0,0,1,0,5.49l-14.88,8.14a48.3,48.3,0,0,0-19.22,19.22l-8.14,14.87a3.13,3.13,0,0,1-5.49,0l-8.13-14.87A48.26,48.26,0,0,0,16.5,285.06L1.63,276.92a3.13,3.13,0,0,1,0-5.49l14.87-8.14A48.38,48.38,0,0,0,35.73,244.07Z"/><path class="cls-4" d="M292,16.5,300.1,1.63a3.13,3.13,0,0,1,5.49,0l8.14,14.87A48.38,48.38,0,0,0,333,35.73l14.88,8.13a3.13,3.13,0,0,1,0,5.49L333,57.49a48.42,48.42,0,0,0-19.22,19.22l-8.14,14.88a3.13,3.13,0,0,1-5.49,0L292,76.71a48.42,48.42,0,0,0-19.22-19.22l-14.88-8.14a3.13,3.13,0,0,1,0-5.49l14.88-8.13A48.38,48.38,0,0,0,292,16.5Z"/></g></g></svg>