<svg width="146" height="164" viewBox="0 0 146 164" fill="none" xmlns="http://www.w3.org/2000/svg">
<path d="M1.9457 44.1313C3.1919 42.8855 4.8819 42.1856 6.64403 42.1856C8.40617 42.1856 10.0962 42.8855 11.3424 44.1313L45.7126 78.4949C48.6702 81.3102 52.4036 83.1745 56.431 83.8473C60.4584 84.5201 64.5951 83.9706 68.3071 82.2695L21.9086 35.871C21.2739 35.258 20.7677 34.5247 20.4194 33.7139C20.0711 32.9032 19.8878 32.0311 19.8801 31.1488C19.8724 30.2664 20.0406 29.3913 20.3747 28.5746C20.7088 27.7579 21.2023 27.0159 21.8263 26.392C22.4502 25.768 23.1922 25.2746 24.0089 24.9404C24.8256 24.6063 25.7007 24.4382 26.583 24.4458C27.4654 24.4535 28.3374 24.6368 29.1482 24.9851C29.959 25.3334 30.6923 25.8396 31.3053 26.4743L77.7503 72.946C79.5374 69.2393 80.1271 65.0685 79.4376 61.0117C78.7482 56.955 76.8138 53.2131 73.9026 50.3049L39.539 15.9347C38.3285 14.6813 37.6587 13.0027 37.6738 11.2602C37.6889 9.51783 38.3878 7.85107 39.6199 6.61895C40.8521 5.38683 42.5188 4.68794 44.2612 4.6728C46.0037 4.65766 47.6823 5.32748 48.9357 6.538L83.2993 40.9083C88.692 46.3362 92.055 53.453 92.8245 61.0656C93.594 68.6783 91.7232 76.3241 87.5258 82.7214L157.542 152.738C158.753 153.991 159.423 155.67 159.407 157.412C159.392 159.155 158.693 160.821 157.461 162.054C156.229 163.286 154.562 163.985 152.82 164C151.078 164.015 149.399 163.345 148.146 162.135L78.1291 92.1181C71.7318 96.3155 64.086 98.1863 56.4733 97.4168C48.8607 96.6473 41.7439 93.2843 36.316 87.8916L1.9457 53.528C0.699868 52.2818 5.54419e-06 50.5918 5.54419e-06 48.8296C5.54419e-06 47.0675 0.699868 45.3775 1.9457 44.1313V44.1313Z" fill="#61C67D"/>
<path d="M101.899 7.19605C119.044 -9.94921 160 6.93023 175.664 22.5869C182.555 29.5099 186.762 38.6562 187.535 48.3939C188.308 58.1315 185.596 67.827 179.884 75.7505L252.246 148.146C252.881 148.759 253.387 149.492 253.735 150.303C254.083 151.114 254.267 151.986 254.274 152.868C254.282 153.751 254.114 154.626 253.78 155.442C253.446 156.259 252.952 157.001 252.328 157.625C251.704 158.249 250.962 158.742 250.146 159.077C249.329 159.411 248.454 159.579 247.571 159.571C246.689 159.564 245.817 159.38 245.006 159.032C244.195 158.684 243.462 158.177 242.849 157.543L170.467 85.1737C162.554 90.914 152.852 93.6427 143.107 92.8692C133.362 92.0957 124.212 87.8706 117.303 80.9539C101.633 65.2905 84.7406 24.3413 101.899 7.19605Z" fill="#61C67D"/>
</svg>
